<mxfile host="app.diagrams.net" modified="2023-05-23T09:59:42.002Z" agent="Mozilla/5.0 (Windows NT 10.0; Win64; x64) AppleWebKit/537.36 (KHTML, like Gecko) Chrome/110.0.0.0 YaBrowser/23.3.4.603 Yowser/2.5 Safari/537.36" etag="pLhEZdVfCKoAL-vrXTFe" version="21.3.2" type="device">
  <diagram name="Страница 1" id="CnySUw97NGD7UjsQFjne">
    <mxGraphModel dx="1822" dy="1005" grid="1" gridSize="10" guides="1" tooltips="1" connect="1" arrows="1" fold="1" page="1" pageScale="1" pageWidth="827" pageHeight="1169" math="0" shadow="0">
      <root>
        <mxCell id="0" />
        <mxCell id="1" parent="0" />
        <mxCell id="0ldu8sa3C7mcL0nZz67D-10" style="edgeStyle=orthogonalEdgeStyle;rounded=0;orthogonalLoop=1;jettySize=auto;html=1;exitX=0;exitY=0.5;exitDx=0;exitDy=0;entryX=1;entryY=0.5;entryDx=0;entryDy=0;endArrow=diamondThin;endFill=1;" parent="1" source="S2nczQWMd_CoNv-GX7DG-1" target="0ldu8sa3C7mcL0nZz67D-8" edge="1">
          <mxGeometry relative="1" as="geometry" />
        </mxCell>
        <mxCell id="S2nczQWMd_CoNv-GX7DG-1" value="&lt;span style=&quot;font-size: 14px;&quot;&gt;MainWindow&lt;/span&gt;" style="swimlane;fontStyle=0;childLayout=stackLayout;horizontal=1;startSize=30;horizontalStack=0;resizeParent=1;resizeParentMax=0;resizeLast=0;collapsible=1;marginBottom=0;whiteSpace=wrap;html=1;" parent="1" vertex="1" collapsed="1">
          <mxGeometry x="320" y="365" width="160" height="55" as="geometry">
            <mxRectangle x="340" y="345" width="220" height="200" as="alternateBounds" />
          </mxGeometry>
        </mxCell>
        <mxCell id="0ldu8sa3C7mcL0nZz67D-26" value="&lt;div style=&quot;&quot;&gt;&lt;pre style=&quot;&quot;&gt;&lt;span style=&quot;font-family: &amp;quot;JetBrains Mono&amp;quot;, monospace; background-color: initial; white-space: normal;&quot;&gt;- static int &lt;/span&gt;&lt;span style=&quot;font-family: &amp;quot;JetBrains Mono&amp;quot;, monospace; background-color: initial; white-space: normal; font-style: italic;&quot;&gt;width &lt;/span&gt;&lt;span style=&quot;font-family: &amp;quot;JetBrains Mono&amp;quot;, monospace; background-color: initial; white-space: normal;&quot;&gt;= &lt;/span&gt;&lt;span style=&quot;font-family: &amp;quot;JetBrains Mono&amp;quot;, monospace; background-color: initial; white-space: normal;&quot;&gt;342&lt;/span&gt;&lt;span style=&quot;font-family: &amp;quot;JetBrains Mono&amp;quot;, monospace; background-color: initial; white-space: normal;&quot;&gt;;&lt;br&gt;&lt;div style=&quot;&quot;&gt;&lt;span style=&quot;background-color: initial;&quot;&gt;- static int &lt;/span&gt;&lt;span style=&quot;background-color: initial; font-style: italic;&quot;&gt;height &lt;/span&gt;&lt;span style=&quot;background-color: initial;&quot;&gt;= &lt;/span&gt;&lt;span style=&quot;background-color: initial;&quot;&gt;485;&lt;/span&gt;&lt;/div&gt;&lt;/span&gt;&lt;div style=&quot;&quot;&gt;&lt;span style=&quot;background-color: initial;&quot;&gt;- ChatBot eva;&lt;br&gt;&lt;/span&gt;&lt;span style=&quot;background-color: initial; font-family: &amp;quot;JetBrains Mono&amp;quot;, monospace; white-space: normal;&quot;&gt;- AnchorPane mainAnchor;&lt;br&gt;&lt;/span&gt;&lt;span style=&quot;background-color: initial; font-family: &amp;quot;JetBrains Mono&amp;quot;, monospace; white-space: normal;&quot;&gt;- TextField messageField;&lt;br&gt;&lt;/span&gt;&lt;span style=&quot;background-color: initial; font-family: &amp;quot;JetBrains Mono&amp;quot;, monospace; white-space: normal;&quot;&gt;- TextArea textArea;&lt;/span&gt;&lt;/div&gt;&lt;/pre&gt;&lt;/div&gt;" style="text;html=1;strokeColor=none;fillColor=none;align=left;verticalAlign=middle;whiteSpace=wrap;rounded=0;" parent="S2nczQWMd_CoNv-GX7DG-1" vertex="1">
          <mxGeometry y="30" width="220" height="100" as="geometry" />
        </mxCell>
        <mxCell id="0ldu8sa3C7mcL0nZz67D-29" value="&lt;div style=&quot;&quot;&gt;&lt;pre style=&quot;&quot;&gt;&lt;font color=&quot;#33001a&quot;&gt;&lt;font style=&quot;&quot; face=&quot;JetBrains Mono, monospace&quot;&gt;+ void &lt;/font&gt;&lt;span style=&quot;font-family: &amp;quot;JetBrains Mono&amp;quot;, monospace;&quot;&gt;start&lt;/span&gt;&lt;font style=&quot;&quot; face=&quot;JetBrains Mono, monospace&quot;&gt;()&lt;br&gt;- void &lt;/font&gt;&lt;span style=&quot;font-family: &amp;quot;JetBrains Mono&amp;quot;, monospace; white-space: normal;&quot;&gt;initialize&lt;/span&gt;&lt;font style=&quot;&quot; face=&quot;JetBrains Mono, monospace&quot;&gt;&lt;span style=&quot;white-space: normal;&quot;&gt;()&lt;br&gt;&lt;/span&gt;- void &lt;/font&gt;&lt;span style=&quot;font-family: &amp;quot;JetBrains Mono&amp;quot;, monospace; white-space: normal;&quot;&gt;close&lt;/span&gt;&lt;span style=&quot;font-family: &amp;quot;JetBrains Mono&amp;quot;, monospace; white-space: normal;&quot;&gt;()&lt;br&gt;- void send();&lt;/span&gt;&lt;/font&gt;&lt;/pre&gt;&lt;/div&gt;" style="text;html=1;strokeColor=none;fillColor=none;align=left;verticalAlign=middle;whiteSpace=wrap;rounded=0;" parent="S2nczQWMd_CoNv-GX7DG-1" vertex="1">
          <mxGeometry y="130" width="220" height="70" as="geometry" />
        </mxCell>
        <mxCell id="S2nczQWMd_CoNv-GX7DG-2" style="edgeStyle=orthogonalEdgeStyle;rounded=0;orthogonalLoop=1;jettySize=auto;html=1;endArrow=diamondThin;endFill=1;exitX=0;exitY=0.5;exitDx=0;exitDy=0;" parent="1" source="0ldu8sa3C7mcL0nZz67D-5" target="S2nczQWMd_CoNv-GX7DG-1" edge="1">
          <mxGeometry relative="1" as="geometry">
            <mxPoint x="640" y="433" as="sourcePoint" />
          </mxGeometry>
        </mxCell>
        <mxCell id="0ldu8sa3C7mcL0nZz67D-7" style="edgeStyle=orthogonalEdgeStyle;rounded=0;orthogonalLoop=1;jettySize=auto;html=1;exitX=0.5;exitY=0;exitDx=0;exitDy=0;endArrow=block;endFill=0;" parent="1" source="0ldu8sa3C7mcL0nZz67D-5" target="0ldu8sa3C7mcL0nZz67D-6" edge="1">
          <mxGeometry relative="1" as="geometry" />
        </mxCell>
        <mxCell id="0ldu8sa3C7mcL0nZz67D-5" value="&lt;span style=&quot;font-size: 14px;&quot;&gt;ChatBot&lt;/span&gt;" style="swimlane;fontStyle=0;childLayout=stackLayout;horizontal=1;startSize=30;horizontalStack=0;resizeParent=1;resizeParentMax=0;resizeLast=0;collapsible=1;marginBottom=0;whiteSpace=wrap;html=1;" parent="1" vertex="1" collapsed="1">
          <mxGeometry x="710" y="365" width="110" height="55" as="geometry">
            <mxRectangle x="690" y="320" width="470" height="250" as="alternateBounds" />
          </mxGeometry>
        </mxCell>
        <mxCell id="0ldu8sa3C7mcL0nZz67D-33" value="&lt;div style=&quot;&quot;&gt;&lt;pre style=&quot;&quot;&gt;&lt;span style=&quot;font-family: &amp;quot;JetBrains Mono&amp;quot;, monospace;&quot;&gt;+ &lt;/span&gt;&lt;span style=&quot;font-family: &amp;quot;JetBrains Mono&amp;quot;, monospace;&quot;&gt;ChatBot&lt;/span&gt;&lt;span style=&quot;font-family: &amp;quot;JetBrains Mono&amp;quot;, monospace;&quot;&gt;() {};&lt;br&gt;&lt;/span&gt;&lt;font face=&quot;JetBrains Mono, monospace&quot;&gt;- Pattern &lt;/font&gt;&lt;span style=&quot;font-family: &amp;quot;JetBrains Mono&amp;quot;, monospace; background-color: initial; white-space: normal;&quot;&gt;pattern&lt;/span&gt;&lt;span style=&quot;background-color: initial;&quot;&gt;&lt;font face=&quot;JetBrains Mono, monospace&quot;&gt;&lt;span style=&quot;white-space: normal;&quot;&gt;;&lt;br&gt;&lt;/span&gt;&lt;/font&gt;&lt;/span&gt;&lt;font face=&quot;JetBrains Mono, monospace&quot;&gt;&lt;span style=&quot;white-space: normal;&quot;&gt;-&lt;/span&gt; boolean &lt;/font&gt;&lt;span style=&quot;font-family: &amp;quot;JetBrains Mono&amp;quot;, monospace; background-color: initial; white-space: normal;&quot;&gt;saveFlag&lt;/span&gt;&lt;span style=&quot;background-color: initial;&quot;&gt;&lt;font face=&quot;JetBrains Mono, monospace&quot;&gt;&lt;span style=&quot;white-space: normal;&quot;&gt;;&lt;br&gt;&lt;/span&gt;&lt;/font&gt;&lt;/span&gt;&lt;font face=&quot;JetBrains Mono, monospace&quot;&gt;&lt;span style=&quot;white-space: normal;&quot;&gt;-&lt;/span&gt;&lt;/font&gt; Map&amp;lt;String&lt;span style=&quot;font-family: &amp;quot;JetBrains Mono&amp;quot;, monospace; background-color: initial; white-space: normal;&quot;&gt;, &lt;/span&gt;&lt;span style=&quot;font-family: &amp;quot;JetBrains Mono&amp;quot;, monospace; background-color: initial; white-space: normal;&quot;&gt;String&amp;gt; &lt;/span&gt;&lt;span style=&quot;font-family: &amp;quot;JetBrains Mono&amp;quot;, monospace; background-color: initial; white-space: normal;&quot;&gt;keys &lt;/span&gt;&lt;span style=&quot;font-family: &amp;quot;JetBrains Mono&amp;quot;, monospace; background-color: initial; white-space: normal;&quot;&gt;= &lt;/span&gt;&lt;span style=&quot;font-family: &amp;quot;JetBrains Mono&amp;quot;, monospace; background-color: initial; white-space: normal;&quot;&gt;new &lt;/span&gt;&lt;span style=&quot;font-family: &amp;quot;JetBrains Mono&amp;quot;, monospace; background-color: initial; white-space: normal;&quot;&gt;HashMap&amp;lt;String&lt;/span&gt;&lt;span style=&quot;font-family: &amp;quot;JetBrains Mono&amp;quot;, monospace; background-color: initial; white-space: normal;&quot;&gt;, &lt;/span&gt;&lt;span style=&quot;background-color: initial;&quot;&gt;&lt;font face=&quot;JetBrains Mono, monospace&quot;&gt;&lt;span style=&quot;white-space: normal;&quot;&gt;String&amp;gt;();&lt;br&gt;&lt;/span&gt;&lt;/font&gt;&lt;/span&gt;&lt;font face=&quot;JetBrains Mono, monospace&quot;&gt;&lt;span style=&quot;white-space: normal;&quot;&gt;-&amp;nbsp;&lt;/span&gt;&lt;/font&gt;Map&amp;lt;String&lt;span style=&quot;font-family: &amp;quot;JetBrains Mono&amp;quot;, monospace; background-color: initial; white-space: normal;&quot;&gt;, &lt;/span&gt;&lt;span style=&quot;font-family: &amp;quot;JetBrains Mono&amp;quot;, monospace; background-color: initial; white-space: normal;&quot;&gt;String&amp;gt; &lt;/span&gt;&lt;span style=&quot;font-family: &amp;quot;JetBrains Mono&amp;quot;, monospace; background-color: initial; white-space: normal;&quot;&gt;answersByKeys &lt;/span&gt;&lt;span style=&quot;font-family: &amp;quot;JetBrains Mono&amp;quot;, monospace; background-color: initial; white-space: normal;&quot;&gt;= new &lt;/span&gt;&lt;span style=&quot;background-color: initial; white-space: normal; font-family: &amp;quot;JetBrains Mono&amp;quot;, monospace;&quot;&gt;HashMap&amp;lt;String&lt;/span&gt;&lt;span style=&quot;background-color: initial; white-space: normal; font-family: &amp;quot;JetBrains Mono&amp;quot;, monospace;&quot;&gt;, &lt;/span&gt;&lt;span style=&quot;background-color: initial;&quot;&gt;&lt;font face=&quot;JetBrains Mono, monospace&quot;&gt;&lt;span style=&quot;white-space: normal;&quot;&gt;String&amp;gt;();&lt;br&gt;&lt;br&gt;&lt;/span&gt;&lt;/font&gt;&lt;/span&gt;&lt;font face=&quot;JetBrains Mono, monospace&quot;&gt;&lt;span style=&quot;white-space: normal;&quot;&gt;+&amp;nbsp;&lt;/span&gt;&lt;/font&gt;String &lt;span style=&quot;font-family: &amp;quot;JetBrains Mono&amp;quot;, monospace; background-color: initial; white-space: normal;&quot;&gt;say&lt;/span&gt;&lt;span style=&quot;background-color: initial;&quot;&gt;&lt;font face=&quot;JetBrains Mono, monospace&quot;&gt;&lt;span style=&quot;white-space: normal;&quot;&gt;(String message);&lt;br&gt;&lt;/span&gt;&lt;/font&gt;&lt;/span&gt;&lt;font face=&quot;JetBrains Mono, monospace&quot;&gt;&lt;span style=&quot;white-space: normal;&quot;&gt;+&amp;nbsp;&lt;/span&gt;&lt;/font&gt;String &lt;span style=&quot;font-family: &amp;quot;JetBrains Mono&amp;quot;, monospace; background-color: initial; white-space: normal;&quot;&gt;checkFunction&lt;/span&gt;&lt;span style=&quot;background-color: initial;&quot;&gt;&lt;font face=&quot;JetBrains Mono, monospace&quot;&gt;&lt;span style=&quot;white-space: normal;&quot;&gt;(String message);&lt;br&gt;&lt;/span&gt;&lt;/font&gt;&lt;/span&gt;&lt;font face=&quot;JetBrains Mono, monospace&quot;&gt;&lt;span style=&quot;white-space: normal;&quot;&gt;+&amp;nbsp;&lt;/span&gt;&lt;/font&gt;String &lt;span style=&quot;font-family: &amp;quot;JetBrains Mono&amp;quot;, monospace; background-color: initial; white-space: normal;&quot;&gt;loadName&lt;/span&gt;&lt;span style=&quot;background-color: initial;&quot;&gt;&lt;font face=&quot;JetBrains Mono, monospace&quot;&gt;&lt;span style=&quot;white-space: normal;&quot;&gt;();&lt;br&gt;&lt;/span&gt;&lt;/font&gt;&lt;/span&gt;&lt;font face=&quot;JetBrains Mono, monospace&quot;&gt;&lt;span style=&quot;white-space: normal;&quot;&gt;+&amp;nbsp;&lt;/span&gt;&lt;/font&gt;void &lt;span style=&quot;font-family: &amp;quot;JetBrains Mono&amp;quot;, monospace; background-color: initial; white-space: normal;&quot;&gt;addHistory&lt;/span&gt;&lt;span style=&quot;background-color: initial;&quot;&gt;&lt;font face=&quot;JetBrains Mono, monospace&quot;&gt;&lt;span style=&quot;white-space: normal;&quot;&gt;(String message);&lt;br&gt;&lt;/span&gt;&lt;/font&gt;&lt;/span&gt;&lt;font face=&quot;JetBrains Mono, monospace&quot;&gt;&lt;span style=&quot;white-space: normal;&quot;&gt;+&lt;/span&gt;&lt;/font&gt; String &lt;span style=&quot;font-family: &amp;quot;JetBrains Mono&amp;quot;, monospace; background-color: initial; white-space: normal;&quot;&gt;loadHistory&lt;/span&gt;&lt;span style=&quot;background-color: initial;&quot;&gt;&lt;font face=&quot;JetBrains Mono, monospace&quot;&gt;&lt;span style=&quot;white-space: normal;&quot;&gt;();&lt;br&gt;&lt;/span&gt;&lt;/font&gt;&lt;/span&gt;&lt;font face=&quot;JetBrains Mono, monospace&quot;&gt;&lt;span style=&quot;white-space: normal;&quot;&gt;+&amp;nbsp;&lt;/span&gt;&lt;/font&gt;boolean &lt;span style=&quot;background-color: initial;&quot;&gt;&lt;font face=&quot;JetBrains Mono, monospace&quot;&gt;&lt;span style=&quot;white-space: normal;&quot;&gt;isSaveFlag();&lt;br&gt;&lt;/span&gt;&lt;/font&gt;&lt;/span&gt;&lt;font face=&quot;JetBrains Mono, monospace&quot;&gt;&lt;span style=&quot;white-space: normal;&quot;&gt;+&amp;nbsp;&lt;/span&gt;&lt;/font&gt;String &lt;span style=&quot;background-color: initial; font-family: &amp;quot;JetBrains Mono&amp;quot;, monospace; white-space: normal;&quot;&gt;readCourse&lt;/span&gt;&lt;span style=&quot;background-color: initial; font-family: &amp;quot;JetBrains Mono&amp;quot;, monospace; white-space: normal;&quot;&gt;(&lt;/span&gt;&lt;span style=&quot;background-color: initial; font-family: &amp;quot;JetBrains Mono&amp;quot;, monospace; white-space: normal;&quot;&gt;int i); &lt;br&gt;+ static String &lt;/span&gt;&lt;span style=&quot;background-color: initial; font-family: &amp;quot;JetBrains Mono&amp;quot;, monospace; white-space: normal;&quot;&gt;readWeather&lt;/span&gt;&lt;span style=&quot;background-color: initial; font-family: &amp;quot;JetBrains Mono&amp;quot;, monospace; white-space: normal;&quot;&gt;();&lt;/span&gt;&lt;/pre&gt;&lt;/div&gt;" style="text;html=1;strokeColor=none;fillColor=none;align=left;verticalAlign=middle;whiteSpace=wrap;rounded=0;" parent="0ldu8sa3C7mcL0nZz67D-5" vertex="1">
          <mxGeometry y="30" width="470" height="220" as="geometry" />
        </mxCell>
        <mxCell id="0ldu8sa3C7mcL0nZz67D-6" value="&lt;span style=&quot;font-size: 14px;&quot;&gt;Bot&lt;/span&gt;" style="swimlane;fontStyle=0;childLayout=stackLayout;horizontal=1;startSize=30;horizontalStack=0;resizeParent=1;resizeParentMax=0;resizeLast=0;collapsible=1;marginBottom=0;whiteSpace=wrap;html=1;" parent="1" vertex="1" collapsed="1">
          <mxGeometry x="725" y="200" width="80" height="50" as="geometry">
            <mxRectangle x="775" y="-10" width="300" height="220" as="alternateBounds" />
          </mxGeometry>
        </mxCell>
        <mxCell id="0ldu8sa3C7mcL0nZz67D-31" value="&lt;div style=&quot;font-family: &amp;quot;JetBrains Mono&amp;quot;, monospace;&quot;&gt;&lt;pre style=&quot;&quot;&gt;&lt;font style=&quot;&quot; color=&quot;#33001a&quot;&gt;- String botName;    &lt;br&gt;+ Bot() {};&lt;br/&gt;&lt;br&gt;&lt;/font&gt;&lt;font color=&quot;#33001a&quot;&gt;- &lt;/font&gt;String userName;&lt;br&gt;+ abstract String loadName(); &lt;br&gt;+ abstract void addHistory(String message);               &lt;br&gt;+ abstract String loadHistory();                         &lt;br/&gt;+ abstract String say(String message);               &lt;br/&gt;+ void setBotName(String botName);&lt;br/&gt;+ void setUserName(String userName);&lt;br/&gt;+ String getBotName();&lt;br/&gt;- String getUserName();&lt;br&gt;&lt;/pre&gt;&lt;/div&gt;" style="text;html=1;strokeColor=none;fillColor=none;align=left;verticalAlign=middle;whiteSpace=wrap;rounded=0;" parent="0ldu8sa3C7mcL0nZz67D-6" vertex="1">
          <mxGeometry y="30" width="300" height="190" as="geometry" />
        </mxCell>
        <mxCell id="lH9q_32WFQsvoyFA_l9H-31" value="" style="rounded=0;whiteSpace=wrap;html=1;opacity=0;" parent="0ldu8sa3C7mcL0nZz67D-6" vertex="1">
          <mxGeometry x="-690" y="-280" width="1580" height="980" as="geometry" />
        </mxCell>
        <mxCell id="0ldu8sa3C7mcL0nZz67D-8" value="&lt;span style=&quot;font-size: 14px;&quot;&gt;log_in&lt;/span&gt;" style="swimlane;fontStyle=0;childLayout=stackLayout;horizontal=1;startSize=30;horizontalStack=0;resizeParent=1;resizeParentMax=0;resizeLast=0;collapsible=1;marginBottom=0;whiteSpace=wrap;html=1;" parent="1" vertex="1" collapsed="1">
          <mxGeometry x="40" y="375" width="80" height="35" as="geometry">
            <mxRectangle x="40" y="375" width="180" height="140" as="alternateBounds" />
          </mxGeometry>
        </mxCell>
        <mxCell id="0ldu8sa3C7mcL0nZz67D-18" value="&lt;div style=&quot;font-family: &amp;quot;JetBrains Mono&amp;quot;, monospace;&quot;&gt;&lt;pre style=&quot;&quot;&gt;&lt;span style=&quot;background-color: rgb(255, 255, 255);&quot;&gt;- static int &lt;span style=&quot;font-style: italic;&quot;&gt;width &lt;/span&gt;= 340;&lt;br&gt;- static int &lt;span style=&quot;font-style: italic;&quot;&gt;height &lt;/span&gt;= 480;&lt;br&gt;- TextField fieldName;&lt;/span&gt;&lt;/pre&gt;&lt;/div&gt;" style="text;strokeColor=none;fillColor=none;align=left;verticalAlign=middle;spacingLeft=4;spacingRight=4;overflow=hidden;points=[[0,0.5],[1,0.5]];portConstraint=eastwest;rotatable=0;whiteSpace=wrap;html=1;" parent="0ldu8sa3C7mcL0nZz67D-8" vertex="1">
          <mxGeometry y="30" width="180" height="60" as="geometry" />
        </mxCell>
        <mxCell id="0ldu8sa3C7mcL0nZz67D-22" value="&lt;div style=&quot;&quot;&gt;&lt;pre style=&quot;&quot;&gt;&lt;font color=&quot;#33001a&quot;&gt;&lt;font style=&quot;&quot; face=&quot;JetBrains Mono, monospace&quot;&gt;- void &lt;/font&gt;&lt;span style=&quot;font-family: &amp;quot;JetBrains Mono&amp;quot;, monospace;&quot;&gt;start&lt;/span&gt;&lt;font style=&quot;&quot; face=&quot;JetBrains Mono, monospace&quot;&gt;()&lt;br/&gt;- void &lt;/font&gt;&lt;span style=&quot;font-family: &amp;quot;JetBrains Mono&amp;quot;, monospace; white-space: normal;&quot;&gt;initialize&lt;/span&gt;&lt;font style=&quot;&quot; face=&quot;JetBrains Mono, monospace&quot;&gt;&lt;span style=&quot;white-space: normal;&quot;&gt;()&lt;br&gt;&lt;/span&gt;- void &lt;/font&gt;&lt;span style=&quot;font-family: &amp;quot;JetBrains Mono&amp;quot;, monospace; white-space: normal;&quot;&gt;close&lt;/span&gt;&lt;span style=&quot;font-family: &amp;quot;JetBrains Mono&amp;quot;, monospace; white-space: normal;&quot;&gt;()&lt;/span&gt;&lt;/font&gt;&lt;/pre&gt;&lt;/div&gt;" style="text;html=1;strokeColor=none;fillColor=none;align=left;verticalAlign=middle;whiteSpace=wrap;rounded=0;" parent="0ldu8sa3C7mcL0nZz67D-8" vertex="1">
          <mxGeometry y="90" width="180" height="50" as="geometry" />
        </mxCell>
        <mxCell id="0ldu8sa3C7mcL0nZz67D-12" style="edgeStyle=orthogonalEdgeStyle;rounded=0;orthogonalLoop=1;jettySize=auto;html=1;entryX=0.5;entryY=1;entryDx=0;entryDy=0;endArrow=diamondThin;endFill=1;" parent="1" source="0ldu8sa3C7mcL0nZz67D-11" target="0ldu8sa3C7mcL0nZz67D-5" edge="1">
          <mxGeometry relative="1" as="geometry" />
        </mxCell>
        <mxCell id="0ldu8sa3C7mcL0nZz67D-11" value="&lt;span style=&quot;font-size: 14px;&quot;&gt;Calculate&lt;/span&gt;" style="swimlane;fontStyle=0;childLayout=stackLayout;horizontal=1;startSize=30;horizontalStack=0;resizeParent=1;resizeParentMax=0;resizeLast=0;collapsible=1;marginBottom=0;whiteSpace=wrap;html=1;" parent="1" vertex="1" collapsed="1">
          <mxGeometry x="722.5" y="530" width="85" height="45" as="geometry">
            <mxRectangle x="750" y="730" width="350" height="130" as="alternateBounds" />
          </mxGeometry>
        </mxCell>
        <mxCell id="0ldu8sa3C7mcL0nZz67D-32" value="&lt;div style=&quot;font-family: &amp;quot;JetBrains Mono&amp;quot;, monospace;&quot;&gt;&lt;pre style=&quot;&quot;&gt;+ double calcExpression(String input);&lt;/pre&gt;&lt;pre style=&quot;&quot;&gt;&lt;div style=&quot;font-family: &amp;quot;JetBrains Mono&amp;quot;, monospace;&quot;&gt;&lt;pre style=&quot;&quot;&gt;- boolean hasPrecedence(char op1, char op2);&lt;/pre&gt;&lt;pre style=&quot;&quot;&gt;- double &lt;span style=&quot;font-family: &amp;quot;JetBrains Mono&amp;quot;, monospace;&quot;&gt;applyOperator&lt;/span&gt;&lt;span style=&quot;font-family: &amp;quot;JetBrains Mono&amp;quot;, monospace;&quot;&gt;(&lt;/span&gt;&lt;span style=&quot;font-family: &amp;quot;JetBrains Mono&amp;quot;, monospace;&quot;&gt;double &lt;/span&gt;&lt;span style=&quot;font-family: &amp;quot;JetBrains Mono&amp;quot;, monospace;&quot;&gt;a&lt;/span&gt;&lt;span style=&quot;font-family: &amp;quot;JetBrains Mono&amp;quot;, monospace;&quot;&gt;, double &lt;/span&gt;&lt;span style=&quot;font-family: &amp;quot;JetBrains Mono&amp;quot;, monospace;&quot;&gt;b&lt;/span&gt;&lt;span style=&quot;font-family: &amp;quot;JetBrains Mono&amp;quot;, monospace;&quot;&gt;, char &lt;/span&gt;&lt;span style=&quot;font-family: &amp;quot;JetBrains Mono&amp;quot;, monospace;&quot;&gt;op);&lt;/span&gt; &lt;/pre&gt;&lt;/div&gt;&lt;/pre&gt;&lt;/div&gt;" style="text;html=1;strokeColor=none;fillColor=none;align=left;verticalAlign=middle;whiteSpace=wrap;rounded=0;" parent="0ldu8sa3C7mcL0nZz67D-11" vertex="1">
          <mxGeometry y="30" width="350" height="100" as="geometry" />
        </mxCell>
      </root>
    </mxGraphModel>
  </diagram>
</mxfile>
